<svg width="75" height="47" viewBox="0 0 75 47" fill="none" xmlns="http://www.w3.org/2000/svg">
<path d="M0.0454545 47V0.454544H30.8636V8.56818H9.88636V19.6591H28.8182V27.7727H9.88636V47H0.0454545ZM37.483 47V0.454544H55.8466C59.3617 0.454544 62.3617 1.08333 64.8466 2.34091C67.3466 3.58333 69.2481 5.34848 70.5511 7.63636C71.8693 9.90909 72.5284 12.5833 72.5284 15.6591C72.5284 18.75 71.8617 21.4091 70.5284 23.6364C69.1951 25.8485 67.2633 27.5455 64.733 28.7273C62.2178 29.9091 59.1723 30.5 55.5966 30.5H43.3011V22.5909H54.0057C55.8845 22.5909 57.4451 22.3333 58.6875 21.8182C59.9299 21.303 60.8542 20.5303 61.4602 19.5C62.0814 18.4697 62.392 17.1894 62.392 15.6591C62.392 14.1136 62.0814 12.8106 61.4602 11.75C60.8542 10.6894 59.9223 9.88636 58.6648 9.34091C57.4223 8.7803 55.8542 8.5 53.9602 8.5H47.3239V47H37.483ZM62.6193 25.8182L74.1875 47H63.3239L52.0057 25.8182H62.6193Z" fill="#8C2641"/>
</svg>
