<svg width="75" height="75" viewBox="0 0 75 75" fill="none" xmlns="http://www.w3.org/2000/svg">
<g clip-path="url(#clip0_1_2)">
<path d="M55.4 8.70001H18.6C16.5 8.70001 14.8 7.00001 14.8 4.90001C14.8 2.80001 16.5 1.10001 18.6 1.10001H55.4C57.5 1.10001 59.2 2.80001 59.2 4.90001C59.2 7.00001 57.5 8.70001 55.4 8.70001Z" fill="black"/>
<path d="M70 41.7H4.3C2.2 41.7 0.5 40 0.5 37.9C0.5 35.8 2.2 34.1 4.3 34.1H70C72.1 34.1 73.8 35.8 73.8 37.9C73.8 40 72.1 41.7 70 41.7Z" fill="black"/>
<path d="M55.4 74.7H18.6C16.5 74.7 14.8 73 14.8 70.9C14.8 68.8 16.5 67.1 18.6 67.1H55.4C57.5 67.1 59.2 68.8 59.2 70.9C59.2 73 57.5 74.7 55.4 74.7Z" fill="black"/>
</g>
<defs>
<clipPath id="clip0_1_2">
<rect width="74" height="74" fill="white" transform="translate(0 1)"/>
</clipPath>
</defs>
</svg>
