<svg width="75" height="75" viewBox="0 0 75 75" fill="none" xmlns="http://www.w3.org/2000/svg">
<path d="M60.2928 13H14.7072C12.1059 13 10 10.7632 10 8C10 5.23684 12.1059 3 14.7072 3H60.2928C62.8941 3 65 5.23684 65 8C65 10.7632 62.8941 13 60.2928 13Z" fill="#6351A3"/>
<path d="M69.5 43.1H3.8C1.7 43.1 0 40.8632 0 38.1C0 35.3369 1.7 33.1 3.8 33.1H69.5C71.6 33.1 73.3 35.3369 73.3 38.1C73.3 40.8632 71.6 43.1 69.5 43.1Z" fill="#6351A3"/>
<path d="M60.2928 74H14.7072C12.1059 74 10 71.7632 10 69C10 66.2368 12.1059 64 14.7072 64H60.2928C62.8941 64 65 66.2368 65 69C65 71.7632 62.8941 74 60.2928 74Z" fill="#6351A3"/>
</svg>
