<svg width="361" height="311" viewBox="0 0 361 311" fill="none" xmlns="http://www.w3.org/2000/svg">
<path d="M361 94.064V110.192C360.747 111.274 360.459 112.393 360.278 113.511C358.006 131.154 352.264 148.174 343.383 163.59C335.892 175.863 327.288 187.421 317.68 198.119C305.356 212.241 292.089 225.513 277.97 237.843C265.01 249.1 251.834 260.14 238.26 270.315C220.21 283.881 201.438 296.617 183.027 309.786C182.42 310.324 181.636 310.621 180.825 310.621C180.014 310.621 179.23 310.324 178.623 309.786C162.414 298.385 145.772 287.489 129.996 275.474C113.39 262.81 97.5061 249.425 81.4777 235.786C61.312 218.641 43.147 199.276 27.3277 178.058C15.3211 162.025 6.98973 143.548 2.9241 123.938C1.6606 119.32 0.8303 115.099 0 110.697V94.064C0.2166 93.126 0.3971 92.224 0.6137 91.2859C2.2021 84.0699 3.2129 76.8539 5.4872 69.6379C13.1033 45.7618 29.5542 25.6934 51.4786 13.5335C71.8856 1.62462 95.8935 -2.56229 119.13 1.73532C141.794 5.47649 162.46 16.9515 177.612 34.2073C178.355 35.2245 178.995 36.3121 179.525 37.4545C183.46 33.5218 186.384 30.4911 189.453 27.6408C208.208 10.1247 232.895 0.342339 258.564 0.25535C284.233 0.168362 308.987 9.78314 327.86 27.1717C342.531 40.4897 352.899 57.874 357.643 77.1064C359.231 82.6267 359.953 88.3273 361 94.064Z" fill="url(#paint0_linear_45_91)"/>
<defs>
<linearGradient id="paint0_linear_45_91" x1="180.5" y1="0.0900879" x2="180.5" y2="310.621" gradientUnits="userSpaceOnUse">
<stop offset="0.305" stop-color="#D98566"/>
<stop offset="1" stop-color="#A65644"/>
</linearGradient>
</defs>
</svg>
