<svg width="193" height="187" viewBox="0 0 193 187" fill="none" xmlns="http://www.w3.org/2000/svg">
<path fill-rule="evenodd" clip-rule="evenodd" d="M133.255 46.9113C127.836 23.4247 104.156 11.2006 87.6094 14.1189C72.1024 16.8539 62.411 26.9912 56.9129 38.2095C54.1554 43.8358 52.5327 49.6031 51.8323 54.5375C51.101 59.6889 51.4746 63.1933 51.9803 64.6137C53.1842 67.9956 51.4186 71.7132 48.0366 72.9172C44.6547 74.1211 40.9371 72.3555 39.7331 68.9735C38.1984 64.6624 38.1091 58.7138 38.9613 52.7104C39.2887 50.4042 39.7706 47.9785 40.4202 45.4866C35.4928 48.9624 31.1702 53.4972 27.5132 58.4914C21.2622 67.028 17.4333 76.2669 16.0705 82.0718C7.78228 117.377 31.787 145.845 51.4478 159.476C70.3463 172.579 89.0529 174.698 102.887 171.917C109.854 170.517 115.442 167.905 119.21 164.984C120.797 163.754 121.951 162.565 122.77 161.474C119.159 160.844 115.381 159.952 111.532 158.735C95.1378 153.553 77.0214 142.36 64.8037 120.131C63.0746 116.985 64.2231 113.033 67.3691 111.304C70.5151 109.575 74.4672 110.723 76.1963 113.869C86.5261 132.663 101.648 141.977 115.45 146.339C129.543 150.794 141.838 149.954 145.651 148.917C174.597 141.046 182.225 115.009 178.447 97.3297C174.824 80.3763 167.71 73.5932 161.587 70.9965C156.226 68.7233 150.424 69.1341 145.932 70.5811C143.863 76.6542 139.866 82.784 132.962 88.7682C130.249 91.1195 126.144 90.8265 123.793 88.1138C121.441 85.4011 121.734 81.296 124.447 78.9447C130.46 73.7333 133.049 68.9597 134.113 64.7456C134.161 64.4325 134.232 64.1238 134.324 63.822C134.432 63.2976 134.518 62.7823 134.585 62.2765C135.168 57.8783 134.47 53.8969 133.687 49.4258L133.686 49.4216L133.685 49.4152C133.542 48.5987 133.396 47.766 133.255 46.9113ZM136.639 162.741C141.929 162.768 146.254 162.225 149.062 161.462C186.22 151.357 196.019 117.348 191.16 94.6126C186.931 74.8253 177.776 63.7413 166.662 59.0282C160.15 56.2665 153.519 55.9368 147.736 56.8396C147.552 53.0096 146.925 49.5264 146.423 46.7385L146.423 46.7354L146.423 46.734C146.285 45.9703 146.157 45.2589 146.05 44.6069L146.019 44.4146L145.976 44.2246C139.056 13.6284 108.544 -2.77397 85.3515 1.31653C67.1952 4.51871 55.2165 15.4648 47.9699 27.4779C34.5088 31.4519 24.2229 40.9806 17.0246 50.811C9.78685 60.6952 5.19314 71.5246 3.41457 79.1007C-6.7145 122.247 22.76 155.406 44.0409 170.16C65.8324 185.268 88.1362 188.142 105.449 184.662C114.055 182.932 121.575 179.6 127.174 175.259C131.453 171.943 135.042 167.672 136.639 162.741Z" fill="url(#paint0_linear_10_29)"/>
<path d="M87.6094 14.1189L87.6963 14.6113L87.6963 14.6113L87.6094 14.1189ZM133.255 46.9113L133.748 46.8297L133.745 46.8142L133.742 46.7989L133.255 46.9113ZM56.9129 38.2095L56.4639 37.9895L56.4639 37.9895L56.9129 38.2095ZM51.8323 54.5375L52.3273 54.6078L52.3273 54.6078L51.8323 54.5375ZM51.9803 64.6137L52.4513 64.446L52.4513 64.446L51.9803 64.6137ZM48.0366 72.9172L48.2043 73.3882L48.2043 73.3882L48.0366 72.9172ZM39.7331 68.9735L40.2042 68.8059L40.2042 68.8059L39.7331 68.9735ZM38.9613 52.7104L39.4563 52.7807L39.4563 52.7807L38.9613 52.7104ZM40.4202 45.4866L40.904 45.6128L41.2487 44.2903L40.132 45.0781L40.4202 45.4866ZM27.5132 58.4914L27.9166 58.7868L27.9166 58.7868L27.5132 58.4914ZM16.0705 82.0718L16.5573 82.1861L16.5573 82.1861L16.0705 82.0718ZM51.4478 159.476L51.163 159.887L51.163 159.887L51.4478 159.476ZM102.887 171.917L102.788 171.427L102.788 171.427L102.887 171.917ZM119.21 164.984L119.517 165.38L119.517 165.38L119.21 164.984ZM122.77 161.474L123.17 161.775L123.66 161.122L122.856 160.982L122.77 161.474ZM111.532 158.735L111.381 159.212L111.381 159.212L111.532 158.735ZM64.8037 120.131L65.2418 119.89L65.2418 119.89L64.8037 120.131ZM67.3691 111.304L67.1283 110.866L67.1283 110.866L67.3691 111.304ZM76.1963 113.869L76.6345 113.628L76.6345 113.628L76.1963 113.869ZM115.45 146.339L115.299 146.816L115.299 146.816L115.45 146.339ZM145.651 148.917L145.782 149.4L145.782 149.4L145.651 148.917ZM178.447 97.3297L177.958 97.4342L177.958 97.4342L178.447 97.3297ZM161.587 70.9965L161.782 70.5362L161.782 70.5362L161.587 70.9965ZM145.932 70.5811L145.778 70.1052L145.539 70.1821L145.458 70.4198L145.932 70.5811ZM132.962 88.7682L132.634 88.3904L132.634 88.3904L132.962 88.7682ZM123.793 88.1138L124.17 87.7863L124.17 87.7863L123.793 88.1138ZM124.447 78.9447L124.775 79.3226L124.775 79.3226L124.447 78.9447ZM134.113 64.7456L134.598 64.868L134.603 64.845L134.607 64.8215L134.113 64.7456ZM134.324 63.822L134.802 63.9686L134.809 63.946L134.814 63.9227L134.324 63.822ZM134.585 62.2765L134.089 62.2108L134.089 62.2108L134.585 62.2765ZM133.687 49.4258L133.194 49.5113L133.194 49.5121L133.687 49.4258ZM133.686 49.4216L134.179 49.3361L134.178 49.3338L133.686 49.4216ZM133.685 49.4152L133.193 49.5014L133.193 49.5029L133.685 49.4152ZM136.639 162.741L136.642 162.241L136.276 162.239L136.164 162.587L136.639 162.741ZM149.062 161.462L148.931 160.979L148.931 160.979L149.062 161.462ZM191.16 94.6126L190.671 94.7171L190.671 94.7171L191.16 94.6126ZM166.662 59.0282L166.467 59.4885L166.467 59.4885L166.662 59.0282ZM147.736 56.8396L147.236 56.8635L147.263 57.4194L147.813 57.3336L147.736 56.8396ZM146.423 46.7385L145.931 46.8257L145.931 46.827L146.423 46.7385ZM146.423 46.7354L146.915 46.6482L146.914 46.6418L146.423 46.7354ZM146.423 46.734L145.93 46.8225L145.931 46.8275L146.423 46.734ZM146.05 44.6069L146.544 44.526L146.544 44.526L146.05 44.6069ZM146.019 44.4146L146.512 44.3337L146.51 44.3189L146.507 44.3043L146.019 44.4146ZM145.976 44.2246L146.464 44.1143L146.464 44.1143L145.976 44.2246ZM85.3515 1.31653L85.4383 1.80893L85.4383 1.80893L85.3515 1.31653ZM47.9699 27.4779L48.1115 27.9574L48.2977 27.9024L48.398 27.7361L47.9699 27.4779ZM17.0246 50.811L17.428 51.1064L17.428 51.1064L17.0246 50.811ZM3.41457 79.1007L3.90133 79.215L3.90133 79.215L3.41457 79.1007ZM44.0409 170.16L44.3258 169.749L44.0409 170.16ZM105.449 184.662L105.547 185.152L105.547 185.152L105.449 184.662ZM127.174 175.259L127.481 175.654L127.481 175.654L127.174 175.259ZM87.6963 14.6113C95.8227 13.1781 105.753 15.461 114.333 21.0326C122.904 26.5986 130.091 35.4228 132.768 47.0237L133.742 46.7989C131 34.9132 123.637 25.882 114.877 20.1939C106.126 14.5114 95.943 12.1414 87.5226 13.6265L87.6963 14.6113ZM57.3618 38.4296C62.81 27.3133 72.3869 17.3114 87.6963 14.6113L87.5226 13.6265C71.8179 16.3963 62.0121 26.669 56.4639 37.9895L57.3618 38.4296ZM52.3273 54.6078C53.0208 49.7229 54.6286 44.0063 57.3618 38.4296L56.4639 37.9895C53.6822 43.6652 52.0447 49.4834 51.3372 54.4673L52.3273 54.6078ZM52.4513 64.446C51.9853 63.1369 51.6007 59.7266 52.3273 54.6078L51.3372 54.4673C50.6013 59.6512 50.964 63.2497 51.5092 64.7814L52.4513 64.446ZM48.2043 73.3882C51.8464 72.0916 53.7478 68.0881 52.4513 64.446L51.5092 64.7814C52.6205 67.9032 50.9907 71.3348 47.8689 72.4461L48.2043 73.3882ZM39.2621 69.1412C40.5587 72.7833 44.5622 74.6848 48.2043 73.3882L47.8689 72.4461C44.7472 73.5574 41.3155 71.9277 40.2042 68.8059L39.2621 69.1412ZM38.4663 52.6401C37.6094 58.6765 37.6878 64.7189 39.2621 69.1412L40.2042 68.8059C38.709 64.6058 38.6088 58.7512 39.4563 52.7807L38.4663 52.6401ZM39.9363 45.3605C39.2821 47.8704 38.7964 50.3148 38.4663 52.6401L39.4563 52.7807C39.781 50.4936 40.2592 48.0865 40.904 45.6128L39.9363 45.3605ZM40.132 45.0781C35.151 48.5916 30.7913 53.1683 27.1098 58.196L27.9166 58.7868C31.5491 53.8261 35.8346 49.3332 40.7084 45.8952L40.132 45.0781ZM27.1098 58.196C20.8209 66.7844 16.9625 76.0845 15.5837 81.9575L16.5573 82.1861C17.904 76.4493 21.7036 67.2716 27.9166 58.7868L27.1098 58.196ZM15.5837 81.9575C7.22491 117.563 31.4387 146.212 51.163 159.887L51.7327 159.065C32.1353 145.478 8.33964 117.191 16.5573 82.1861L15.5837 81.9575ZM51.163 159.887C70.1727 173.067 89.0177 175.215 102.985 172.407L102.788 171.427C89.0882 174.181 70.5199 172.091 51.7327 159.065L51.163 159.887ZM102.985 172.407C110.016 170.994 115.678 168.355 119.517 165.38L118.904 164.589C115.206 167.456 109.693 170.039 102.788 171.427L102.985 172.407ZM119.517 165.38C121.134 164.126 122.32 162.905 123.17 161.775L122.37 161.174C121.582 162.224 120.46 163.383 118.904 164.589L119.517 165.38ZM111.381 159.212C115.253 160.435 119.053 161.333 122.684 161.967L122.856 160.982C119.266 160.355 115.509 159.468 111.683 158.258L111.381 159.212ZM64.3655 120.372C76.6559 142.733 94.8876 153.998 111.381 159.212L111.683 158.258C95.3881 153.108 77.3869 141.987 65.2418 119.89L64.3655 120.372ZM67.1283 110.866C63.7403 112.728 62.5034 116.984 64.3655 120.372L65.2418 119.89C63.6457 116.986 64.706 113.338 67.61 111.742L67.1283 110.866ZM76.6345 113.628C74.7723 110.24 70.5163 109.003 67.1283 110.866L67.61 111.742C70.5139 110.146 74.162 111.206 75.7581 114.11L76.6345 113.628ZM115.601 145.863C101.898 141.531 86.8918 132.291 76.6345 113.628L75.7581 114.11C86.1605 133.036 101.397 142.422 115.299 146.816L115.601 145.863ZM145.52 148.435C141.812 149.443 129.616 150.293 115.601 145.863L115.299 146.816C129.47 151.295 141.863 150.466 145.782 149.4L145.52 148.435ZM177.958 97.4342C181.694 114.916 174.152 140.649 145.52 148.435L145.782 149.4C175.042 141.443 182.756 115.101 178.936 97.2252L177.958 97.4342ZM161.391 71.4569C167.323 73.9724 174.358 80.5907 177.958 97.4342L178.936 97.2252C175.289 80.1619 168.096 73.214 161.782 70.5362L161.391 71.4569ZM146.085 71.057C150.495 69.6366 156.169 69.2421 161.391 71.4569L161.782 70.5362C156.283 68.2045 150.353 68.6317 145.778 70.1052L146.085 71.057ZM133.289 89.146C140.251 83.1116 144.304 76.9098 146.405 70.7423L145.458 70.4198C143.422 76.3985 139.48 82.4564 132.634 88.3904L133.289 89.146ZM123.415 88.4413C125.947 91.3626 130.368 91.6782 133.289 89.146L132.634 88.3904C130.13 90.5608 126.341 90.2903 124.17 87.7863L123.415 88.4413ZM124.12 78.5669C121.198 81.099 120.883 85.5199 123.415 88.4413L124.17 87.7863C122 85.2823 122.271 81.4929 124.775 79.3226L124.12 78.5669ZM133.628 64.6232C132.593 68.724 130.067 73.4123 124.12 78.5669L124.775 79.3226C130.853 74.0543 133.505 69.1954 134.598 64.868L133.628 64.6232ZM133.846 63.6754C133.747 64.0003 133.67 64.3326 133.619 64.6698L134.607 64.8215C134.651 64.5324 134.717 64.2474 134.802 63.9686L133.846 63.6754ZM134.089 62.2108C134.023 62.7056 133.94 63.2091 133.834 63.7213L134.814 63.9227C134.924 63.3861 135.012 62.8591 135.08 62.3422L134.089 62.2108ZM133.194 49.5121C133.98 53.9936 134.66 57.9005 134.089 62.2108L135.08 62.3422C135.675 57.8561 134.961 53.8002 134.179 49.3395L133.194 49.5121ZM133.194 49.507L133.194 49.5113L134.18 49.3404L134.179 49.3361L133.194 49.507ZM133.193 49.5029L133.194 49.5093L134.178 49.3338L134.177 49.3274L133.193 49.5029ZM132.761 46.993C132.903 47.8503 133.05 48.6853 133.193 49.5014L134.178 49.3289C134.034 48.5121 133.889 47.6817 133.748 46.8297L132.761 46.993ZM136.637 163.241C141.956 163.268 146.328 162.723 149.193 161.944L148.931 160.979C146.179 161.728 141.903 162.268 136.642 162.241L136.637 163.241ZM149.193 161.944C186.669 151.754 196.549 117.436 191.649 94.5081L190.671 94.7171C195.489 117.26 185.771 150.961 148.931 160.979L149.193 161.944ZM191.649 94.5081C187.397 74.6125 178.164 63.3626 166.857 58.5679L166.467 59.4885C177.388 64.12 186.465 75.0382 190.671 94.7171L191.649 94.5081ZM166.857 58.5679C160.244 55.7633 153.516 55.4312 147.659 56.3455L147.813 57.3336C153.522 56.4424 160.055 56.7697 166.467 59.4885L166.857 58.5679ZM148.235 56.8156C148.05 52.949 147.417 49.4361 146.916 46.65L145.931 46.827C146.433 49.6167 147.054 53.0702 147.236 56.8635L148.235 56.8156ZM146.916 46.6513L146.915 46.6482L145.931 46.8226L145.931 46.8257L146.916 46.6513ZM146.914 46.6418L146.914 46.6404L145.931 46.8275L145.932 46.829L146.914 46.6418ZM146.915 46.6454C146.777 45.8808 146.65 45.1734 146.544 44.526L145.557 44.6878C145.665 45.3444 145.793 46.0598 145.931 46.8225L146.915 46.6454ZM146.544 44.526L146.512 44.3337L145.525 44.4955L145.557 44.6878L146.544 44.526ZM146.507 44.3043L146.464 44.1143L145.488 44.3349L145.531 44.5249L146.507 44.3043ZM146.464 44.1143C139.483 13.2489 108.711 -3.31112 85.2646 0.824128L85.4383 1.80893C108.378 -2.23683 138.629 14.0079 145.488 44.3349L146.464 44.1143ZM85.2646 0.824128C66.9364 4.05665 54.8458 15.1113 47.5418 27.2196L48.398 27.7361C55.5872 15.8182 67.4541 4.98078 85.4383 1.80893L85.2646 0.824128ZM17.428 51.1064C24.5887 41.3274 34.7924 31.8895 48.1115 27.9574L47.8283 26.9983C34.2253 31.0143 23.8571 40.6339 16.6211 50.5156L17.428 51.1064ZM3.90133 79.215C5.66391 71.707 10.2282 60.9388 17.428 51.1064L16.6211 50.5156C9.34549 60.4516 4.72236 71.3422 2.9278 78.9865L3.90133 79.215ZM44.3258 169.749C23.1062 155.037 -6.15676 122.059 3.90133 79.215L2.9278 78.9865C-7.27224 122.435 22.4138 155.774 43.756 170.571L44.3258 169.749ZM105.35 184.172C88.1714 187.625 66.0061 184.78 44.3258 169.749L43.756 170.571C65.6588 185.756 88.1009 188.659 105.547 185.152L105.35 184.172ZM126.868 174.864C121.339 179.15 113.893 182.455 105.35 184.172L105.547 185.152C114.216 183.41 121.811 180.049 127.481 175.654L126.868 174.864ZM136.164 162.587C134.607 167.392 131.096 171.587 126.868 174.864L127.481 175.654C131.81 172.299 135.477 167.951 137.115 162.895L136.164 162.587Z" fill="black"/>
<path d="M87.6094 14.1189L87.6963 14.6113L87.6963 14.6113L87.6094 14.1189ZM133.255 46.9113L133.748 46.8297L133.745 46.8142L133.742 46.7989L133.255 46.9113ZM56.9129 38.2095L56.4639 37.9895L56.4639 37.9895L56.9129 38.2095ZM51.8323 54.5375L52.3273 54.6078L52.3273 54.6078L51.8323 54.5375ZM51.9803 64.6137L52.4513 64.446L52.4513 64.446L51.9803 64.6137ZM48.0366 72.9172L48.2043 73.3882L48.2043 73.3882L48.0366 72.9172ZM39.7331 68.9735L40.2042 68.8059L40.2042 68.8059L39.7331 68.9735ZM38.9613 52.7104L39.4563 52.7807L39.4563 52.7807L38.9613 52.7104ZM40.4202 45.4866L40.904 45.6128L41.2487 44.2903L40.132 45.0781L40.4202 45.4866ZM27.5132 58.4914L27.9166 58.7868L27.9166 58.7868L27.5132 58.4914ZM16.0705 82.0718L16.5573 82.1861L16.5573 82.1861L16.0705 82.0718ZM51.4478 159.476L51.163 159.887L51.163 159.887L51.4478 159.476ZM102.887 171.917L102.788 171.427L102.788 171.427L102.887 171.917ZM119.21 164.984L119.517 165.38L119.517 165.38L119.21 164.984ZM122.77 161.474L123.17 161.775L123.66 161.122L122.856 160.982L122.77 161.474ZM111.532 158.735L111.381 159.212L111.381 159.212L111.532 158.735ZM64.8037 120.131L65.2418 119.89L65.2418 119.89L64.8037 120.131ZM67.3691 111.304L67.1283 110.866L67.1283 110.866L67.3691 111.304ZM76.1963 113.869L76.6345 113.628L76.6345 113.628L76.1963 113.869ZM115.45 146.339L115.299 146.816L115.299 146.816L115.45 146.339ZM145.651 148.917L145.782 149.4L145.782 149.4L145.651 148.917ZM178.447 97.3297L177.958 97.4342L177.958 97.4342L178.447 97.3297ZM161.587 70.9965L161.782 70.5362L161.782 70.5362L161.587 70.9965ZM145.932 70.5811L145.778 70.1052L145.539 70.1821L145.458 70.4198L145.932 70.5811ZM132.962 88.7682L132.634 88.3904L132.634 88.3904L132.962 88.7682ZM123.793 88.1138L124.17 87.7863L124.17 87.7863L123.793 88.1138ZM124.447 78.9447L124.775 79.3226L124.775 79.3226L124.447 78.9447ZM134.113 64.7456L134.598 64.868L134.603 64.845L134.607 64.8215L134.113 64.7456ZM134.324 63.822L134.802 63.9686L134.809 63.946L134.814 63.9227L134.324 63.822ZM134.585 62.2765L134.089 62.2108L134.089 62.2108L134.585 62.2765ZM133.687 49.4258L133.194 49.5113L133.194 49.5121L133.687 49.4258ZM133.686 49.4216L134.179 49.3361L134.178 49.3338L133.686 49.4216ZM133.685 49.4152L133.193 49.5014L133.193 49.5029L133.685 49.4152ZM136.639 162.741L136.642 162.241L136.276 162.239L136.164 162.587L136.639 162.741ZM149.062 161.462L148.931 160.979L148.931 160.979L149.062 161.462ZM191.16 94.6126L190.671 94.7171L190.671 94.7171L191.16 94.6126ZM166.662 59.0282L166.467 59.4885L166.467 59.4885L166.662 59.0282ZM147.736 56.8396L147.236 56.8635L147.263 57.4194L147.813 57.3336L147.736 56.8396ZM146.423 46.7385L145.931 46.8257L145.931 46.827L146.423 46.7385ZM146.423 46.7354L146.915 46.6482L146.914 46.6418L146.423 46.7354ZM146.423 46.734L145.93 46.8225L145.931 46.8275L146.423 46.734ZM146.05 44.6069L146.544 44.526L146.544 44.526L146.05 44.6069ZM146.019 44.4146L146.512 44.3337L146.51 44.3189L146.507 44.3043L146.019 44.4146ZM145.976 44.2246L146.464 44.1143L146.464 44.1143L145.976 44.2246ZM85.3515 1.31653L85.4383 1.80893L85.4383 1.80893L85.3515 1.31653ZM47.9699 27.4779L48.1115 27.9574L48.2977 27.9024L48.398 27.7361L47.9699 27.4779ZM17.0246 50.811L17.428 51.1064L17.428 51.1064L17.0246 50.811ZM3.41457 79.1007L3.90133 79.215L3.90133 79.215L3.41457 79.1007ZM44.0409 170.16L44.3258 169.749L44.0409 170.16ZM105.449 184.662L105.547 185.152L105.547 185.152L105.449 184.662ZM127.174 175.259L127.481 175.654L127.481 175.654L127.174 175.259ZM87.6963 14.6113C95.8227 13.1781 105.753 15.461 114.333 21.0326C122.904 26.5986 130.091 35.4228 132.768 47.0237L133.742 46.7989C131 34.9132 123.637 25.882 114.877 20.1939C106.126 14.5114 95.943 12.1414 87.5226 13.6265L87.6963 14.6113ZM57.3618 38.4296C62.81 27.3133 72.3869 17.3114 87.6963 14.6113L87.5226 13.6265C71.8179 16.3963 62.0121 26.669 56.4639 37.9895L57.3618 38.4296ZM52.3273 54.6078C53.0208 49.7229 54.6286 44.0063 57.3618 38.4296L56.4639 37.9895C53.6822 43.6652 52.0447 49.4834 51.3372 54.4673L52.3273 54.6078ZM52.4513 64.446C51.9853 63.1369 51.6007 59.7266 52.3273 54.6078L51.3372 54.4673C50.6013 59.6512 50.964 63.2497 51.5092 64.7814L52.4513 64.446ZM48.2043 73.3882C51.8464 72.0916 53.7478 68.0881 52.4513 64.446L51.5092 64.7814C52.6205 67.9032 50.9907 71.3348 47.8689 72.4461L48.2043 73.3882ZM39.2621 69.1412C40.5587 72.7833 44.5622 74.6848 48.2043 73.3882L47.8689 72.4461C44.7472 73.5574 41.3155 71.9277 40.2042 68.8059L39.2621 69.1412ZM38.4663 52.6401C37.6094 58.6765 37.6878 64.7189 39.2621 69.1412L40.2042 68.8059C38.709 64.6058 38.6088 58.7512 39.4563 52.7807L38.4663 52.6401ZM39.9363 45.3605C39.2821 47.8704 38.7964 50.3148 38.4663 52.6401L39.4563 52.7807C39.781 50.4936 40.2592 48.0865 40.904 45.6128L39.9363 45.3605ZM40.132 45.0781C35.151 48.5916 30.7913 53.1683 27.1098 58.196L27.9166 58.7868C31.5491 53.8261 35.8346 49.3332 40.7084 45.8952L40.132 45.0781ZM27.1098 58.196C20.8209 66.7844 16.9625 76.0845 15.5837 81.9575L16.5573 82.1861C17.904 76.4493 21.7036 67.2716 27.9166 58.7868L27.1098 58.196ZM15.5837 81.9575C7.22491 117.563 31.4387 146.212 51.163 159.887L51.7327 159.065C32.1353 145.478 8.33964 117.191 16.5573 82.1861L15.5837 81.9575ZM51.163 159.887C70.1727 173.067 89.0177 175.215 102.985 172.407L102.788 171.427C89.0882 174.181 70.5199 172.091 51.7327 159.065L51.163 159.887ZM102.985 172.407C110.016 170.994 115.678 168.355 119.517 165.38L118.904 164.589C115.206 167.456 109.693 170.039 102.788 171.427L102.985 172.407ZM119.517 165.38C121.134 164.126 122.32 162.905 123.17 161.775L122.37 161.174C121.582 162.224 120.46 163.383 118.904 164.589L119.517 165.38ZM111.381 159.212C115.253 160.435 119.053 161.333 122.684 161.967L122.856 160.982C119.266 160.355 115.509 159.468 111.683 158.258L111.381 159.212ZM64.3655 120.372C76.6559 142.733 94.8876 153.998 111.381 159.212L111.683 158.258C95.3881 153.108 77.3869 141.987 65.2418 119.89L64.3655 120.372ZM67.1283 110.866C63.7403 112.728 62.5034 116.984 64.3655 120.372L65.2418 119.89C63.6457 116.986 64.706 113.338 67.61 111.742L67.1283 110.866ZM76.6345 113.628C74.7723 110.24 70.5163 109.003 67.1283 110.866L67.61 111.742C70.5139 110.146 74.162 111.206 75.7581 114.11L76.6345 113.628ZM115.601 145.863C101.898 141.531 86.8918 132.291 76.6345 113.628L75.7581 114.11C86.1605 133.036 101.397 142.422 115.299 146.816L115.601 145.863ZM145.52 148.435C141.812 149.443 129.616 150.293 115.601 145.863L115.299 146.816C129.47 151.295 141.863 150.466 145.782 149.4L145.52 148.435ZM177.958 97.4342C181.694 114.916 174.152 140.649 145.52 148.435L145.782 149.4C175.042 141.443 182.756 115.101 178.936 97.2252L177.958 97.4342ZM161.391 71.4569C167.323 73.9724 174.358 80.5907 177.958 97.4342L178.936 97.2252C175.289 80.1619 168.096 73.214 161.782 70.5362L161.391 71.4569ZM146.085 71.057C150.495 69.6366 156.169 69.2421 161.391 71.4569L161.782 70.5362C156.283 68.2045 150.353 68.6317 145.778 70.1052L146.085 71.057ZM133.289 89.146C140.251 83.1116 144.304 76.9098 146.405 70.7423L145.458 70.4198C143.422 76.3985 139.48 82.4564 132.634 88.3904L133.289 89.146ZM123.415 88.4413C125.947 91.3626 130.368 91.6782 133.289 89.146L132.634 88.3904C130.13 90.5608 126.341 90.2903 124.17 87.7863L123.415 88.4413ZM124.12 78.5669C121.198 81.099 120.883 85.5199 123.415 88.4413L124.17 87.7863C122 85.2823 122.271 81.4929 124.775 79.3226L124.12 78.5669ZM133.628 64.6232C132.593 68.724 130.067 73.4123 124.12 78.5669L124.775 79.3226C130.853 74.0543 133.505 69.1954 134.598 64.868L133.628 64.6232ZM133.846 63.6754C133.747 64.0003 133.67 64.3326 133.619 64.6698L134.607 64.8215C134.651 64.5324 134.717 64.2474 134.802 63.9686L133.846 63.6754ZM134.089 62.2108C134.023 62.7056 133.94 63.2091 133.834 63.7213L134.814 63.9227C134.924 63.3861 135.012 62.8591 135.08 62.3422L134.089 62.2108ZM133.194 49.5121C133.98 53.9936 134.66 57.9005 134.089 62.2108L135.08 62.3422C135.675 57.8561 134.961 53.8002 134.179 49.3395L133.194 49.5121ZM133.194 49.507L133.194 49.5113L134.18 49.3404L134.179 49.3361L133.194 49.507ZM133.193 49.5029L133.194 49.5093L134.178 49.3338L134.177 49.3274L133.193 49.5029ZM132.761 46.993C132.903 47.8503 133.05 48.6853 133.193 49.5014L134.178 49.3289C134.034 48.5121 133.889 47.6817 133.748 46.8297L132.761 46.993ZM136.637 163.241C141.956 163.268 146.328 162.723 149.193 161.944L148.931 160.979C146.179 161.728 141.903 162.268 136.642 162.241L136.637 163.241ZM149.193 161.944C186.669 151.754 196.549 117.436 191.649 94.5081L190.671 94.7171C195.489 117.26 185.771 150.961 148.931 160.979L149.193 161.944ZM191.649 94.5081C187.397 74.6125 178.164 63.3626 166.857 58.5679L166.467 59.4885C177.388 64.12 186.465 75.0382 190.671 94.7171L191.649 94.5081ZM166.857 58.5679C160.244 55.7633 153.516 55.4312 147.659 56.3455L147.813 57.3336C153.522 56.4424 160.055 56.7697 166.467 59.4885L166.857 58.5679ZM148.235 56.8156C148.05 52.949 147.417 49.4361 146.916 46.65L145.931 46.827C146.433 49.6167 147.054 53.0702 147.236 56.8635L148.235 56.8156ZM146.916 46.6513L146.915 46.6482L145.931 46.8226L145.931 46.8257L146.916 46.6513ZM146.914 46.6418L146.914 46.6404L145.931 46.8275L145.932 46.829L146.914 46.6418ZM146.915 46.6454C146.777 45.8808 146.65 45.1734 146.544 44.526L145.557 44.6878C145.665 45.3444 145.793 46.0598 145.931 46.8225L146.915 46.6454ZM146.544 44.526L146.512 44.3337L145.525 44.4955L145.557 44.6878L146.544 44.526ZM146.507 44.3043L146.464 44.1143L145.488 44.3349L145.531 44.5249L146.507 44.3043ZM146.464 44.1143C139.483 13.2489 108.711 -3.31112 85.2646 0.824128L85.4383 1.80893C108.378 -2.23683 138.629 14.0079 145.488 44.3349L146.464 44.1143ZM85.2646 0.824128C66.9364 4.05665 54.8458 15.1113 47.5418 27.2196L48.398 27.7361C55.5872 15.8182 67.4541 4.98078 85.4383 1.80893L85.2646 0.824128ZM17.428 51.1064C24.5887 41.3274 34.7924 31.8895 48.1115 27.9574L47.8283 26.9983C34.2253 31.0143 23.8571 40.6339 16.6211 50.5156L17.428 51.1064ZM3.90133 79.215C5.66391 71.707 10.2282 60.9388 17.428 51.1064L16.6211 50.5156C9.34549 60.4516 4.72236 71.3422 2.9278 78.9865L3.90133 79.215ZM44.3258 169.749C23.1062 155.037 -6.15676 122.059 3.90133 79.215L2.9278 78.9865C-7.27224 122.435 22.4138 155.774 43.756 170.571L44.3258 169.749ZM105.35 184.172C88.1714 187.625 66.0061 184.78 44.3258 169.749L43.756 170.571C65.6588 185.756 88.1009 188.659 105.547 185.152L105.35 184.172ZM126.868 174.864C121.339 179.15 113.893 182.455 105.35 184.172L105.547 185.152C114.216 183.41 121.811 180.049 127.481 175.654L126.868 174.864ZM136.164 162.587C134.607 167.392 131.096 171.587 126.868 174.864L127.481 175.654C131.81 172.299 135.477 167.951 137.115 162.895L136.164 162.587Z" fill="black" fill-opacity="0.2"/>
<defs>
<linearGradient id="paint0_linear_10_29" x1="96.8424" y1="3.19707" x2="96.8424" y2="183.489" gradientUnits="userSpaceOnUse">
<stop stop-color="#6351A3"/>
<stop offset="0.985" stop-color="#669EFF"/>
</linearGradient>
</defs>
</svg>
