<svg width="100" height="100" viewBox="0 0 100 100" fill="none" xmlns="http://www.w3.org/2000/svg">
<path fill-rule="evenodd" clip-rule="evenodd" d="M19.5382 27.6722L2.9619 11.096C0.214892 8.34895 -0.0253431 4.14163 2.42492 1.69137C4.87518 -0.758887 9.0825 -0.518657 11.8295 2.22835L25.4126 15.8114L69.9686 6.39669C71.338 6.11026 72.7583 6.45162 73.8452 7.33051C74.9281 8.2094 75.5596 9.53166 75.5635 10.9245V65.9623L97.7717 88.1705C100.519 90.9175 100.759 95.1248 98.3086 97.5751C95.8584 100.025 91.6511 99.7851 88.9041 97.0381L73.0338 81.1679C71.3292 83.4746 68.8612 85.2123 65.935 85.9837C60.2654 87.4786 54.2975 84.9714 51.3976 79.8707C48.4981 74.7701 49.4005 68.3588 53.587 64.2546C54.0202 63.83 54.4772 63.441 54.9541 63.0882L25.8553 33.9894V85.3357C25.8514 91.2015 21.8964 96.3294 16.2268 97.825C10.5533 99.3238 4.58529 96.8127 1.68948 91.712C-1.21005 86.6114 -0.311575 80.2001 3.87887 76.0959C8.06539 71.9879 14.4959 71.2188 19.5382 74.2165V27.6722ZM38.4642 28.8631L69.2463 59.6452V22.3581L38.4642 28.8631Z" fill="#6351A3"/>
</svg>
