<svg width="105" height="105" viewBox="0 0 105 105" fill="none" xmlns="http://www.w3.org/2000/svg">
<path fill-rule="evenodd" clip-rule="evenodd" d="M78.5635 12.9246V75.4944C78.5596 81.3602 74.6085 86.4881 68.935 87.9837C63.2654 89.4786 57.2975 86.9714 54.3976 81.8708C51.4981 76.7701 52.4005 70.3588 56.587 66.2547C60.7775 62.1467 67.204 61.3737 72.2463 64.3752V24.3581L28.8553 33.5276V87.3357C28.8514 93.2015 24.8964 98.3294 19.2268 99.825C13.5533 101.324 7.58529 98.8127 4.68948 93.7121C1.78995 88.6114 2.68843 82.2001 6.87887 78.0959C11.0654 73.988 17.4959 73.2189 22.5382 76.2165V24.6875C22.5225 21.3996 24.8295 18.5549 28.0509 17.8879L72.9686 8.39672C74.338 8.11029 75.7583 8.45165 76.8452 9.33054C77.9281 10.2094 78.5596 11.5317 78.5635 12.9246Z" fill="#8C2641"/>
</svg>
